<?xml version="1.0" standalone="no"?>
<!DOCTYPE svg PUBLIC "-//W3C//DTD SVG 20010904//EN"
 "http://www.w3.org/TR/2001/REC-SVG-20010904/DTD/svg10.dtd">
<svg version="1.0" xmlns="http://www.w3.org/2000/svg"
 width="16.000000pt" height="16.000000pt" viewBox="0 0 16.000000 16.000000"
 preserveAspectRatio="xMidYMid meet">
<metadata>
Created by potrace 1.11, written by Peter Selinger 2001-2013
</metadata>
<g transform="translate(0.000000,16.000000) scale(0.002768,-0.002768)"
fill="#000000" stroke="none">
<path d="M4250 5575 c-178 -39 -388 -155 -608 -333 -176 -143 -595 -560 -1442
-1437 -262 -271 -315 -317 -334 -286 -3 5 -16 11 -28 14 -13 3 -59 15 -103 27
-242 65 -452 78 -627 39 -198 -45 -389 -167 -437 -280 -35 -80 -38 -147 -11
-219 39 -104 133 -168 298 -201 118 -24 179 -24 315 1 227 41 397 120 603 277
41 32 83 64 93 70 17 12 27 10 201 -55 8 -3 51 -17 94 -32 44 -14 81 -31 83
-36 2 -5 -38 -46 -88 -89 -149 -130 -372 -367 -458 -488 -105 -147 -183 -302
-212 -422 -54 -218 -24 -380 93 -497 64 -63 115 -91 213 -114 209 -49 531 67
1020 366 113 69 179 113 403 267 50 35 92 60 92 56 0 -8 -15 -24 -149 -168
-36 -39 -115 -124 -176 -190 -60 -66 -119 -129 -130 -141 -16 -16 -42 -24
-113 -33 -167 -21 -389 -86 -572 -168 -172 -77 -274 -134 -498 -281 -521 -343
-768 -672 -673 -895 24 -56 67 -83 159 -99 213 -36 534 94 840 341 143 115
203 172 650 624 284 286 357 355 368 346 8 -6 14 -17 14 -25 0 -7 9 -18 19
-24 15 -8 25 -4 50 19 25 24 31 37 31 72 0 25 -7 50 -16 61 -18 19 -16 21 321
378 76 81 171 184 275 295 177 191 313 337 353 380 88 94 130 227 85 271 -15
16 -19 15 -60 -9 -24 -15 -72 -51 -108 -82 -90 -76 -250 -207 -276 -225 -12
-8 -60 -44 -106 -78 -78 -60 -240 -175 -380 -270 -35 -24 -124 -81 -198 -127
-74 -47 -148 -93 -165 -104 -76 -48 -243 -141 -374 -207 -298 -151 -519 -216
-681 -199 -110 11 -164 70 -163 181 1 157 76 323 252 559 83 111 427 446 581
566 30 23 57 46 60 49 13 17 42 16 120 -1 155 -34 318 -23 415 30 51 27 95 73
95 99 l0 24 -122 -7 c-120 -6 -252 5 -270 23 -5 5 24 29 67 56 41 26 81 53 88
60 7 7 24 19 37 26 14 7 68 41 120 75 52 34 124 78 160 97 36 20 88 49 115 65
58 34 346 178 420 210 117 51 245 96 370 129 86 22 299 30 350 11 88 -31 107
-118 49 -234 -37 -74 -47 -86 -174 -213 -220 -220 -450 -374 -571 -382 -83 -5
-84 60 -2 170 53 72 94 114 219 223 109 95 180 148 351 260 81 53 102 77 83
90 -78 50 -572 -301 -729 -518 -65 -90 -91 -157 -91 -236 0 -103 32 -136 131
-137 134 0 278 67 504 236 280 210 416 410 417 618 0 185 -107 265 -358 266
-114 0 -250 -20 -401 -60 -123 -33 -357 -114 -453 -157 -30 -14 -84 -39 -120
-55 -123 -56 -355 -176 -460 -238 -58 -35 -125 -74 -150 -88 -25 -14 -83 -52
-130 -84 -47 -33 -102 -70 -123 -84 l-38 -25 -102 35 c-134 46 -287 103 -293
108 -5 6 123 144 267 287 64 64 210 215 324 336 318 336 413 433 770 790 390
391 565 535 748 620 130 60 215 42 232 -49 9 -46 1 -56 -93 -106 -86 -46 -285
-177 -319 -209 -12 -12 -25 -21 -29 -21 -15 0 -145 -114 -247 -216 -163 -163
-354 -425 -400 -551 -44 -118 -53 -167 -39 -221 35 -132 200 -149 384 -38 218
130 533 469 726 781 73 118 153 328 164 430 3 26 12 35 73 65 63 32 70 38 73
68 4 40 -10 47 -69 32 -76 -20 -79 -19 -94 25 -8 23 -33 57 -58 80 -74 68
-186 89 -317 60z m210 -379 c0 -41 -200 -400 -284 -511 -110 -144 -351 -398
-457 -480 -123 -96 -208 -128 -239 -90 -35 42 31 208 141 355 236 317 458 518
779 708 32 19 60 27 60 18z m-3106 -1771 c64 -8 153 -25 198 -36 46 -11 102
-26 126 -32 23 -6 42 -14 42 -18 0 -11 -105 -99 -190 -159 -77 -55 -217 -130
-242 -130 -8 0 -18 -4 -24 -9 -14 -13 -164 -41 -222 -41 -120 0 -233 41 -272
97 -20 29 -24 47 -24 105 1 60 5 75 30 110 77 109 290 151 578 113z m1448
-1889 c-17 -19 -178 -184 -359 -367 -374 -378 -654 -638 -763 -709 -41 -27
-79 -53 -85 -57 -28 -23 -158 -73 -215 -83 -107 -19 -177 0 -203 56 -21 42
-15 78 29 169 59 126 250 319 519 525 44 33 87 66 95 73 23 18 116 78 201 129
261 158 589 280 793 297 15 1 13 -5 -12 -33z"/>
</g>
</svg>
